<svg xmlns="http://www.w3.org/2000/svg" viewBox="0 0 595.14 602.9"><defs><style>.cls-1{fill:#314891;}</style></defs><g id="Layer_2" data-name="Layer 2"><g id="Layer_1-2" data-name="Layer 1"><path class="cls-1" d="M.15,301.53C-5.17,144.11,131.78,1.24,291.82,0c172.7-1.33,301.72,130.71,303.3,294.12,1.59,164.47-124.59,309.66-306,308.77C137.92,602.15-1.66,476.38.15,301.53ZM191.38,153.45c6.25-3.6,9.23-5.15,12.05-7,20.93-13.46,42.84-24.15,67.89-28,93.16-14.19,164.77,26.3,204.69,109,5.29,10.95,2.5,15.17-9.89,15.09-20.38-.12-48.38-.55-68.67-2.07-7.57-.57-7.83-4-14.51-8.06-10.65-6.53-19.68-15.94-30.7-21.55-36.79-18.73-92.13-18.46-133.3,30.09-48.63,57.34-25.28,150.57,46.11,174.43,37.12,12.4,71.66,6.16,103.25-17.46,5.89-4.41,13.83-8.22,20.94-8.45,21.64-.68,43.34.29,65,1.1,14.58.54,16.46,3.86,8.19,16.47-21.06,32.06-47.23,58.78-83,74.4-55.16,24.06-110.61,26.15-163.92-3.77-72.71-40.81-102.89-105.63-100.33-187.47,1.36-43.74,2.27-87.5,3.34-131.24.22-9-.26-18.1.31-27.13-5.59,7.4-10.58,15.23-16,22.73C45.66,233,33.51,316.89,71.19,407.4c44.65,107.26,165.19,166.67,278,137,107.05-28.12,181.89-118.25,186.62-228C540,220.29,501.13,143.6,419,94.65,334.34,44.13,241.72,42,162.8,100.91c-8.69,6.48-14.06,11.07-17.5,15.32,11.8-.06,23.61.11,35.41,0,7.71-.1,11,3.59,10.72,11.2S191.38,142.59,191.38,153.45Z"/></g></g></svg>