<svg xmlns="http://www.w3.org/2000/svg" viewBox="0 0 486.59 495.3"><defs><style>.cls-1{fill:#314891;}</style></defs><g id="Layer_2" data-name="Layer 2"><g id="Layer_1-2" data-name="Layer 1"><path class="cls-1" d="M141.83,96.72c6.25-3.6,9.24-5.15,12.06-7,20.92-13.46,42.83-24.15,67.88-28,93.16-14.19,164.77,26.3,204.7,109,5.29,10.95,2.5,15.17-9.9,15.1-20.37-.13-48.37-.56-68.66-2.08-7.58-.57-7.84-4-14.52-8.06-10.64-6.53-19.67-15.94-30.7-21.55-36.79-18.73-92.13-18.46-133.3,30.09-48.62,57.34-25.28,150.57,46.12,174.43,37.12,12.4,71.66,6.16,103.24-17.46,5.89-4.41,13.83-8.22,20.95-8.45,21.63-.68,43.33.29,65,1.1,14.58.54,16.47,3.87,8.19,16.47-21.05,32.06-47.23,58.79-83,74.4-55.17,24.06-110.62,26.15-163.92-3.77C93.21,380.15,63,315.33,65.59,233.49,67,189.75,67.86,146,68.94,102.25c.22-9-.26-18.1.3-27.13-5.58,7.4-10.58,15.23-16,22.73C-3.89,176.32-16,260.16,21.64,350.68c44.65,107.25,165.2,166.66,278,137,107-28.12,181.89-118.25,186.63-228,4.14-96.19-34.7-172.88-116.8-221.83-84.7-50.51-177.32-52.65-256.23,6.26-8.69,6.48-14.06,11.07-17.5,15.32,11.8-.06,23.6.11,35.4,0,7.72-.11,11,3.58,10.73,11.19S141.83,85.86,141.83,96.72Z"/></g></g></svg>